<svg xmlns="http://www.w3.org/2000/svg" width="24" height="24" viewBox="0 0 24 24"><defs><style>.a{fill:none;}.b{fill:#fff;stroke:#fff;stroke-width:0.25px;}</style></defs><rect class="a" width="24" height="24"/><g transform="translate(-3.772 -6.547)"><path class="b" d="M23.436,17.361V13.7A2.494,2.494,0,0,0,20.942,11.2H19.814v-.542a.759.759,0,0,0-1.518,0v.521H11.94v-.521a.759.759,0,0,0-1.518,0v.521H9.294A2.494,2.494,0,0,0,6.8,13.7v7.874a2.494,2.494,0,0,0,2.494,2.494h5.6a5.574,5.574,0,1,0,8.546-6.724ZM9.294,22.567a.976.976,0,0,1-.976-.976V13.7a.976.976,0,0,1,.976-.976h1.128v.3a.759.759,0,1,0,1.518,0v-.3H18.3v.3a.759.759,0,1,0,1.518,0v-.3h1.128a.976.976,0,0,1,.976.976v2.776a5.574,5.574,0,0,0-7.483,6.073Zm10.65,3.21A4.056,4.056,0,1,1,24.022,21.7,4.056,4.056,0,0,1,19.944,25.777Z" transform="translate(0 0)"/><path class="b" d="M65.195,52.6H64.109V50.955a.655.655,0,0,0-1.309,0v2.3a.655.655,0,0,0,.655.655h1.758a.655.655,0,0,0,0-1.309Z" transform="translate(-43.461 -31.254)"/></g></svg>