<svg xmlns="http://www.w3.org/2000/svg" width="18.002" height="12.001" viewBox="0 0 18.002 12.001"><defs><style>.a{fill:#fff;}</style></defs><g transform="translate(-4 -8)"><path class="a" d="M4,20.189a1.524,1.524,0,0,0,1.5,1.547h15A1.524,1.524,0,0,0,22,20.189V14H4Zm12.751-3.868a1.466,1.466,0,0,1,.75.217,1.469,1.469,0,0,1,1.911.331,1.585,1.585,0,0,1,0,2A1.469,1.469,0,0,1,17.5,19.2a1.464,1.464,0,0,1-1.725-.141,1.579,1.579,0,0,1-.449-1.723A1.5,1.5,0,0,1,16.751,16.321Z" transform="translate(0 -1.736)"/><path class="a" d="M22,9.547A1.524,1.524,0,0,0,20.5,8H5.5A1.524,1.524,0,0,0,4,9.547V10.67H22Z"/></g></svg>