<svg xmlns="http://www.w3.org/2000/svg" width="11.069" height="12.028" viewBox="0 0 11.069 12.028"><path d="M7.326,42a1.092,1.092,0,0,0-1.085,1.085v.633H3.547a.43.43,0,0,0,0,.859H3.94c.28,2.731.535,5.467.8,8.2a1.339,1.339,0,0,0,1.287,1.248h5.155a1.34,1.34,0,0,0,1.286-1.246c.276-2.739.527-5.476.82-8.205h.469a.43.43,0,0,0,0-.859h-2.79v-.633A1.092,1.092,0,0,0,9.882,42Zm0,.859H9.882a.216.216,0,0,1,.226.226v.633H7.1v-.633A.216.216,0,0,1,7.326,42.859Zm-.011,3.866a.43.43,0,0,1,.43.43v3.437a.43.43,0,0,1-.859,0V47.155A.43.43,0,0,1,7.315,46.726Zm2.578,0a.43.43,0,0,1,.43.43v3.437a.43.43,0,0,1-.859,0V47.155A.43.43,0,0,1,9.893,46.726Z" transform="translate(-3.117 -42)"/></svg>