<svg xmlns="http://www.w3.org/2000/svg" xmlns:xlink="http://www.w3.org/1999/xlink" width="14" height="6.999" viewBox="0 0 14 6.999"><defs><style>.a{fill:#223345;}.b{clip-path:url(#a);}</style><clipPath id="a"><path class="a" d="M7,7a.993.993,0,0,1-.64-.232l-6-5A1,1,0,1,1,1.64.231L7.011,4.707,12.373.392A1,1,0,0,1,13.627,1.95l-6,4.828A1,1,0,0,1,7,7" transform="translate(0 0)"/></clipPath></defs><path class="a" d="M7,7a.993.993,0,0,1-.64-.232l-6-5A1,1,0,1,1,1.64.231L7.011,4.707,12.373.392A1,1,0,0,1,13.627,1.95l-6,4.828A1,1,0,0,1,7,7" transform="translate(0 0)"/></svg>