<svg xmlns="http://www.w3.org/2000/svg" xmlns:xlink="http://www.w3.org/1999/xlink" width="24" height="24" viewBox="0 0 24 24"><defs><style>.a{fill:#00204a;}.b{clip-path:url(#a);}</style><clipPath id="a"><path class="a" d="M15.293,15.707l-3-3a1,1,0,1,1,1.414-1.414L15,12.585V3.357L13.7,4.616A1,1,0,0,1,12.3,3.177l3-2.9a1,1,0,0,1,1.4.013l3,3A1,1,0,0,1,19,5a.99.99,0,0,1-.706-.292L17,3.414v9.23l1.3-1.26a1,1,0,0,1,1.39,1.439l-3,2.9a1,1,0,0,1-1.4-.013ZM6,16a1,1,0,0,1,0-2H8a1,1,0,0,1,0,2ZM4,9A1,1,0,0,1,4,7H8A1,1,0,0,1,8,9ZM1,2A1,1,0,0,1,1,0H8A1,1,0,0,1,8,2Z"/></clipPath></defs><g transform="translate(2 4)"><path class="a" d="M15.293,15.707l-3-3a1,1,0,1,1,1.414-1.414L15,12.585V3.357L13.7,4.616A1,1,0,0,1,12.3,3.177l3-2.9a1,1,0,0,1,1.4.013l3,3A1,1,0,0,1,19,5a.99.99,0,0,1-.706-.292L17,3.414v9.23l1.3-1.26a1,1,0,0,1,1.39,1.439l-3,2.9a1,1,0,0,1-1.4-.013ZM6,16a1,1,0,0,1,0-2H8a1,1,0,0,1,0,2ZM4,9A1,1,0,0,1,4,7H8A1,1,0,0,1,8,9ZM1,2A1,1,0,0,1,1,0H8A1,1,0,0,1,8,2Z"/></g></svg>