<svg xmlns="http://www.w3.org/2000/svg" xmlns:xlink="http://www.w3.org/1999/xlink" width="11" height="11" viewBox="0 0 11 11"><defs><style>.a{clip-path:url(#a);}</style><clipPath id="a"><path d="M.647,11A.67.67,0,0,1,0,10.313V.687A.67.67,0,0,1,.647,0H1.941a.67.67,0,0,1,.647.687.67.67,0,0,1-.647.687H1.294v8.25h.647a.689.689,0,0,1,0,1.375ZM8.024,8.8a.716.716,0,0,1-.13-.962L9.06,6.187H3.883a.689.689,0,0,1,0-1.375H9.058a.43.43,0,0,1,.056.012L8,3.145a.715.715,0,0,1,.157-.958.623.623,0,0,1,.9.167L10.882,5.1a.722.722,0,0,1-.012.807L8.929,8.662a.633.633,0,0,1-.518.275A.619.619,0,0,1,8.024,8.8Z"/></clipPath></defs><path d="M.647,11A.67.67,0,0,1,0,10.313V.687A.67.67,0,0,1,.647,0H1.941a.67.67,0,0,1,.647.687.67.67,0,0,1-.647.687H1.294v8.25h.647a.689.689,0,0,1,0,1.375ZM8.024,8.8a.716.716,0,0,1-.13-.962L9.06,6.187H3.883a.689.689,0,0,1,0-1.375H9.058a.43.43,0,0,1,.056.012L8,3.145a.715.715,0,0,1,.157-.958.623.623,0,0,1,.9.167L10.882,5.1a.722.722,0,0,1-.012.807L8.929,8.662a.633.633,0,0,1-.518.275A.619.619,0,0,1,8.024,8.8Z"/></svg>