<svg xmlns="http://www.w3.org/2000/svg" xmlns:xlink="http://www.w3.org/1999/xlink" width="24" height="24" viewBox="0 0 24 24"><defs><style>.a{fill:#223345;}.b{clip-path:url(#a);}</style><clipPath id="a"><path class="a" d="M1,10A1,1,0,0,1,.293,8.292L3.6,4.987.418,1.694A1,1,0,0,1,1.857.3l3.862,4a1,1,0,0,1-.012,1.4l-4,4A1,1,0,0,1,1,10"/></clipPath></defs><g transform="translate(9.5 7.001)"><path class="a" d="M1,10A1,1,0,0,1,.293,8.292L3.6,4.987.418,1.694A1,1,0,0,1,1.857.3l3.862,4a1,1,0,0,1-.012,1.4l-4,4A1,1,0,0,1,1,10"/></g></svg>