<svg xmlns="http://www.w3.org/2000/svg" xmlns:xlink="http://www.w3.org/1999/xlink" width="14.833" height="14.833" viewBox="0 0 14.833 14.833"><defs><style>.a{fill:#223345;}.b{fill:#fff;stroke:#fff;stroke-width:1.5px;}.c{clip-path:url(#a);}</style><clipPath id="a"><path class="a" d="M12.5,5.833h-5v-5a.833.833,0,0,0-1.667,0v5h-5a.833.833,0,0,0,0,1.667h5v5a.833.833,0,0,0,1.667,0v-5h5a.833.833,0,0,0,0-1.667"/></clipPath></defs><g transform="translate(0.75 0.75)"><path class="b" d="M12.5,5.833h-5v-5a.833.833,0,0,0-1.667,0v5h-5a.833.833,0,0,0,0,1.667h5v5a.833.833,0,0,0,1.667,0v-5h5a.833.833,0,0,0,0-1.667"/></g></svg>