<svg xmlns="http://www.w3.org/2000/svg" width="14.764" height="14.713" viewBox="0 0 14.764 14.713"><defs><style>.a{fill:#fff;}</style></defs><g transform="translate(-28.4 -18.93)"><path class="a" d="M53.36,25.344l.8.8,3.074-3.074a1.141,1.141,0,0,1,.369.034l.1.024,1.9-2.2L58.575,19.9l-2.213,1.913.031.106a.83.83,0,0,1,.038.342Z" transform="translate(-16.436 -0.639)"/><path class="a" d="M29.9,46.218a1.048,1.048,0,0,0,0,1.486l.683.683a1.052,1.052,0,0,0,1.486,0l4.371-4.372L34.26,41.84Z" transform="translate(-0.781 -15.086)"/><path class="a" d="M31.866,25.863a3.306,3.306,0,0,0,1.277-.27l7.64,7.64A1.357,1.357,0,1,0,42.7,31.314l-7.64-7.64a3.309,3.309,0,0,0,.27-1.277,3.511,3.511,0,0,0-3.466-3.466,3.4,3.4,0,0,0-1.387.314l-.232.1L32.3,21.392a1.014,1.014,0,1,1-1.434,1.434l-2.049-2.049-.1.232A3.415,3.415,0,0,0,28.4,22.4a3.511,3.511,0,0,0,3.466,3.466Z"/></g></svg>