<svg xmlns="http://www.w3.org/2000/svg" width="13.044" height="13.043" viewBox="0 0 13.044 13.043"><defs><style>.a{fill:#fff;}</style></defs><g transform="translate(-2.5 -2.5)"><path d="M14.911,7.681l-.838-.234-.357-.88.426-.756A.872.872,0,0,0,14,4.768l-.715-.715a.875.875,0,0,0-1.045-.137l-.756.426-.88-.357-.234-.838A.9.9,0,0,0,9.537,2.5h-1a.866.866,0,0,0-.838.646l-.234.838-.88.357-.756-.426a.872.872,0,0,0-1.045.137l-.728.715a.875.875,0,0,0-.137,1.045l.426.756-.357.88-.838.234A.9.9,0,0,0,2.5,8.52v1a.855.855,0,0,0,.646.838l.838.234.357.88-.426.756a.872.872,0,0,0,.137,1.045l.715.715a.875.875,0,0,0,1.045.137l.756-.426.88.357.234.838a.9.9,0,0,0,.838.646h1a.866.866,0,0,0,.838-.646l.234-.838.88-.357.756.426a.872.872,0,0,0,1.045-.137l.715-.715a.872.872,0,0,0,.137-1.045l-.426-.756.357-.88.838-.234a.9.9,0,0,0,.646-.838v-1A.85.85,0,0,0,14.911,7.681Z"/><path class="a" d="M34.474,32a2.474,2.474,0,1,0,2.474,2.474A2.481,2.481,0,0,0,34.474,32Z" transform="translate(-25.446 -25.446)"/></g></svg>