<svg xmlns="http://www.w3.org/2000/svg" width="15" height="15" viewBox="0 0 15 15"><defs><style>.a{fill:#fff;fill-rule:evenodd;}</style></defs><path class="a" d="M323.693,394.758a5.7,5.7,0,0,0-3.062,2.272l-1.662-1.024-1.05,2.438,1.911.442a5.491,5.491,0,0,0,.481,3.727l-1.738.892,1.637,2.107,1.348-1.4a5.782,5.782,0,0,0,3.544,1.456l-.078,1.918,2.686-.331-.564-1.838a5.708,5.708,0,0,0,3.062-2.27l1.662,1.024,1.049-2.437-1.91-.443a5.506,5.506,0,0,0-.481-3.728l1.737-.891-1.636-2.107-1.349,1.4a5.789,5.789,0,0,0-3.543-1.457l.079-1.916-2.686.331Zm1.488,3.477a1.877,1.877,0,0,0-1.658,2.087,1.9,1.9,0,0,0,2.137,1.62,1.877,1.877,0,0,0,1.658-2.087A1.9,1.9,0,0,0,325.181,398.236Zm-.158-1.227a3.12,3.12,0,0,0-2.755,3.469,3.164,3.164,0,0,0,3.551,2.692,3.12,3.12,0,0,0,2.755-3.469A3.163,3.163,0,0,0,325.023,397.009Z" transform="translate(-317.92 -392.59)"/></svg>