<svg xmlns="http://www.w3.org/2000/svg" width="24" height="24" viewBox="0 0 24 24"><defs><style>.a,.c{fill:none;}.b{fill:#fff;stroke-width:0.75px;fill-rule:evenodd;}.b,.c{stroke:#fff;}.c{stroke-linecap:round;stroke-linejoin:round;stroke-width:1.5px;}.d{stroke:none;}</style></defs><rect class="a" width="24" height="24"/><g transform="translate(2.779 1.517)"><path class="b" d="M2.308,2a1.159,1.159,0,0,0-1.069.713L.138,5.962A2.224,2.224,0,0,0,.585,8.254a2.17,2.17,0,0,0,.957.59v8.578a1.547,1.547,0,0,0,1.542,1.542H15.428a1.547,1.547,0,0,0,1.542-1.542.386.386,0,0,0-.771,0,.761.761,0,0,1-.771.771H3.084a.761.761,0,0,1-.771-.771V8.934a2.177,2.177,0,0,0,.332-.045A2.021,2.021,0,0,0,3.883,8.03a2.162,2.162,0,0,0,.284.3A2.338,2.338,0,0,0,5.71,8.94,2.181,2.181,0,0,0,7.465,7.97,2.142,2.142,0,0,0,11.035,8a2.166,2.166,0,0,0,1.856.944A2.372,2.372,0,0,0,14.375,8.3a2.185,2.185,0,0,0,.229-.253,2.032,2.032,0,0,0,1.294.849,2.334,2.334,0,0,0,.3.035v7.723a.386.386,0,0,0,.771,0V8.83a2.144,2.144,0,0,0,1.023-.672,2.169,2.169,0,0,0,.352-2.218L17.271,2.725A1.178,1.178,0,0,0,16.2,2Zm0,.771H16.2a.384.384,0,0,1,.355.236l1.083,3.228a1.41,1.41,0,0,1-1.6,1.9A1.421,1.421,0,0,1,15,7.012a.386.386,0,0,0-.771,0,1.05,1.05,0,0,1-.38.719,1.658,1.658,0,0,1-.993.438,1.434,1.434,0,0,1-1.446-1.157.386.386,0,0,0-.771,0A1.438,1.438,0,0,1,9.255,8.169,1.492,1.492,0,0,1,7.862,7.012a.386.386,0,0,0-.771,0A1.587,1.587,0,0,1,5.7,8.169a1.637,1.637,0,0,1-1.025-.414A1.059,1.059,0,0,1,4.3,7.2a.955.955,0,0,1-.014-.181A.39.39,0,0,0,4.1,6.682a.386.386,0,0,0-.578.334,1.417,1.417,0,0,1-1.038,1.12,1.419,1.419,0,0,1-1.331-.407A1.372,1.372,0,0,1,.867,6.213L1.953,3.008A.382.382,0,0,1,2.308,2.771Z" transform="translate(0)"/><g class="c" transform="translate(7.324 12.583)"><rect class="d" width="4" height="5"/><rect class="a" x="-0.75" y="-0.75" width="5.5" height="6.5"/></g></g></svg>