<svg xmlns="http://www.w3.org/2000/svg" width="24" height="24" viewBox="0 0 24 24"><defs><style>.a{fill:none;}.b{fill:#fff;}</style></defs><rect class="a" width="24" height="24"/><g transform="translate(-1.949 -1.404)"><path class="b" d="M10.029,16H6.584A2.584,2.584,0,0,0,4,18.584v3.445a2.584,2.584,0,0,0,2.584,2.584h3.445a2.584,2.584,0,0,0,2.584-2.584V18.584A2.584,2.584,0,0,0,10.029,16Zm.861,6.029a.861.861,0,0,1-.861.861H6.584a.861.861,0,0,1-.861-.861V18.584a.861.861,0,0,1,.861-.861h3.445a.861.861,0,0,1,.861.861Z" transform="translate(0 -1.664)"/><path class="b" d="M22.029,4H18.584A2.584,2.584,0,0,0,16,6.584v3.445a2.584,2.584,0,0,0,2.584,2.584h3.445a2.584,2.584,0,0,0,2.584-2.584V6.584A2.584,2.584,0,0,0,22.029,4Zm.861,6.029a.861.861,0,0,1-.861.861H18.584a.861.861,0,0,1-.861-.861V6.584a.861.861,0,0,1,.861-.861h3.445a.861.861,0,0,1,.861.861Z" transform="translate(-1.664)"/><path class="b" d="M10.029,4H6.584A2.584,2.584,0,0,0,4,6.584v3.445a2.584,2.584,0,0,0,2.584,2.584h3.445a2.584,2.584,0,0,0,2.584-2.584V6.584A2.584,2.584,0,0,0,10.029,4Zm.861,6.029a.861.861,0,0,1-.861.861H6.584a.861.861,0,0,1-.861-.861V6.584a.861.861,0,0,1,.861-.861h3.445a.861.861,0,0,1,.861.861Z"/><path class="b" d="M23.752,19.445H21.168V16.861a.861.861,0,0,0-1.723,0v2.584H16.861a.861.861,0,0,0,0,1.723h2.584v2.584a.861.861,0,0,0,1.723,0V21.168h2.584a.861.861,0,0,0,0-1.723Z" transform="translate(-1.664 -1.664)"/></g></svg>