<svg xmlns="http://www.w3.org/2000/svg" xmlns:xlink="http://www.w3.org/1999/xlink" width="16" height="18" viewBox="0 0 16 18"><defs><style>.a{fill:#00204a;}.b{clip-path:url(#a);}</style><clipPath id="a"><path class="a" d="M9.9,18a1,1,0,0,1-.6-.2L5.274,14.752a1,1,0,0,1-.4-.8V10.681L.112,1.459A1,1,0,0,1,1,0H15a1,1,0,0,1,.88,1.475L10.9,10.69V17a.991.991,0,0,1-.554.895A1.007,1.007,0,0,1,9.9,18ZM2.643,2,6.765,9.978a1,1,0,0,1,.112.459v3.02L8.9,14.99V10.437a1.008,1.008,0,0,1,.121-.475L13.324,2Z" transform="translate(0)"/></clipPath></defs><g transform="translate(0)"><path class="a" d="M9.9,18a1,1,0,0,1-.6-.2L5.274,14.752a1,1,0,0,1-.4-.8V10.681L.112,1.459A1,1,0,0,1,1,0H15a1,1,0,0,1,.88,1.475L10.9,10.69V17a.991.991,0,0,1-.554.895A1.007,1.007,0,0,1,9.9,18ZM2.643,2,6.765,9.978a1,1,0,0,1,.112.459v3.02L8.9,14.99V10.437a1.008,1.008,0,0,1,.121-.475L13.324,2Z" transform="translate(0)"/></g></svg>