<svg xmlns="http://www.w3.org/2000/svg" width="12.448" height="10.401" viewBox="0 0 12.448 10.401"><g transform="translate(-2.45 -10.3)"><path d="M44.337,35.259A8.923,8.923,0,0,0,42.425,33.7l-1.952,1.952a1.725,1.725,0,0,1,.052.445,2.091,2.091,0,0,1-2.083,2.1,1.825,1.825,0,0,1-.458-.052L36.7,39.425a7.3,7.3,0,0,0,1.742.21,8.115,8.115,0,0,0,5.895-2.685A1.263,1.263,0,0,0,44.337,35.259Z" transform="translate(-29.763 -20.335)"/><path d="M13.421,10.5a.664.664,0,0,0-.943,0l-1.965,1.965a7.4,7.4,0,0,0-1.834-.223,8.115,8.115,0,0,0-5.895,2.685,1.236,1.236,0,0,0,0,1.69,8.824,8.824,0,0,0,1.978,1.6L3.413,19.561a.667.667,0,1,0,.943.943l9.065-9.065A.664.664,0,0,0,13.421,10.5ZM6.6,15.763A2.08,2.08,0,0,1,8.679,13.68a1.994,1.994,0,0,1,.55.079L6.662,16.313A2.435,2.435,0,0,1,6.6,15.763Z"/></g></svg>