<svg xmlns="http://www.w3.org/2000/svg" width="16" height="16" viewBox="0 0 16 16"><defs><style>.a{fill:#dfdfe6;}.b{fill:#00204a;}</style></defs><path class="a" d="M8,0a8,8,0,1,0,8,8A8,8,0,0,0,8,0Zm.1,12.085a.237.237,0,0,0,.224,0,2.139,2.139,0,0,0,.374-.347c.16-.19.3-.4.459-.611l.222.134a4.68,4.68,0,0,1-1.139,1.4,1.77,1.77,0,0,1-.893.373.908.908,0,0,1-1.069-1.182c.16-.658.363-1.306.549-1.958S7.2,8.563,7.389,7.9a1.656,1.656,0,0,0,.034-.2.392.392,0,0,0-.354-.49A3.392,3.392,0,0,0,6.72,7.2a.565.565,0,0,1,.018-.114l.022-.16,2.758-.442-.192.669h0l-.043.16-1.2,4.206A1.331,1.331,0,0,0,8,11.862a.3.3,0,0,0,.1.222ZM8.762,4.96a1,1,0,1,1,1-1,1.006,1.006,0,0,1-1,1Z"/><path class="b" d="M8.1,12.085a.237.237,0,0,0,.224,0,2.139,2.139,0,0,0,.374-.347c.16-.19.3-.4.459-.611l.222.134a4.68,4.68,0,0,1-1.139,1.4,1.77,1.77,0,0,1-.893.373.908.908,0,0,1-1.069-1.182c.16-.658.363-1.306.549-1.958S7.2,8.563,7.389,7.9a1.656,1.656,0,0,0,.034-.2.392.392,0,0,0-.354-.49A3.392,3.392,0,0,0,6.72,7.2a.565.565,0,0,1,.018-.114l.022-.16,2.758-.442-.192.669h0l-.043.16-1.2,4.206A1.331,1.331,0,0,0,8,11.862a.3.3,0,0,0,.1.222ZM8.762,4.96a1,1,0,1,1,1-1,1.006,1.006,0,0,1-1,1Z" transform="translate(0 -0.003)"/></svg>