<?xml version="1.0" encoding="UTF-8"?>
<svg width="116px" height="24px" viewBox="0 0 116 24" version="1.1" xmlns="http://www.w3.org/2000/svg" xmlns:xlink="http://www.w3.org/1999/xlink">
    <title>Fill 399@1.5x</title>
    <g id="Quick-Fixes" stroke="none" stroke-width="1" fill="none" fill-rule="evenodd">
        <path d="M67.4365206,20.0812263 C68.3557989,22.0427773 68.7887863,22.6565194 70.1098901,24 L65.1190536,24 L61.3664957,15.2102435 L53.8162769,15.2102435 L50.111282,24 L49.7947419,24 L47.1828763,24 L47.1648352,24 C48.1021546,22.764725 48.4178746,22.196862 49.0821167,20.6586114 L57.8328916,0 L58.8210543,0 L67.4365206,20.0812263 Z M61.1868132,13.3333333 L57.9708497,6.66666667 L54.8131868,13.3333333 L61.1868132,13.3333333 Z M91.6559186,20.0812263 C92.5753283,22.0427773 93.0083777,22.6565194 94.3296703,24 L89.3381203,24 L85.5850258,15.2102435 L78.031267,15.2102435 L74.3282028,24 L74.0116175,24 L71.3993784,24 L71.3846154,24 C72.3187882,22.764725 72.6337332,22.196862 73.2988904,20.6586114 L82.0525568,0 L83.0392204,0 L91.6559186,20.0812263 Z M85.4065934,13.3333333 L82.1880664,6.66666667 L79.032967,13.3333333 L85.4065934,13.3333333 Z M104.966682,12.7770346 C104.966682,12.7770346 115.541531,23.5348979 116,24 L111.325955,24 C109.025259,21.8162679 106.048969,18.916728 102.31775,14.3210352 C101.25467,13.0199597 100.502247,12.8557043 100.017055,12.8271757 L100.017055,20.2091586 C100.017055,21.3995779 100.017055,22.3315111 100.665926,23.984439 L95.6043956,23.984439 C96.287506,22.3315111 96.244916,21.3995779 96.244916,20.2091586 L96.244916,3.77670395 C96.244916,2.62432274 96.287506,1.60680385 95.6043956,0.00228807364 L100.57156,0.00228807364 C103.964564,0.00228807364 111.974826,-0.316713176 111.974826,6.57855504 C111.974826,10.2181086 109.19562,12.1796637 105.936231,12.6767524 L104.966682,12.7770346 Z M100.703297,11.9481876 C100.703297,11.9481876 104.544667,12.1839356 105.623943,11.6496929 C105.689426,11.6174232 105.722561,11.6039775 105.722561,11.6039775 L105.713094,11.6138377 C107.733581,10.7389704 108.412862,8.55000952 108.34738,6.70256954 C108.273219,4.91877256 107.56948,1.03834185 100.703297,1.35117861 L100.703297,11.9481876 Z M16.5289273,21.6065787 L16.5714286,21.4005626 C16.5714286,21.4005626 15.0381117,22.3259035 13.4909001,22.2990695 L4.31715343,22.2990695 L4.31715343,12.8924475 L13.988656,12.8924475 L14.4888638,11.0478251 L4.31715343,11.0478251 L4.31715343,1.65072495 L12.9882403,1.65072495 C13.7598027,1.64466566 14.5068452,1.86106903 15.090421,2.09478468 C15.3102836,2.19692707 15.5473102,2.30599437 15.8448194,2.43497079 L15.8170301,0 L4.85822794,0 L0,0 C0.669395808,1.60484744 0.626894487,2.62540576 0.626894487,3.77840294 L0.626894487,20.2181346 C0.626894487,21.41095 0.669395808,22.344947 0,24 L16.2060807,24 L16.5460912,21.6065787 L16.5289273,21.6065787 Z M41.0796264,24 C41.2991037,22.815798 41.2991037,21.1494319 41.1222115,19.7877728 L39.6792302,8.47985573 L31.805892,23.9896123 L30.3014899,23.9896123 L22.2946636,7.78041479 L20.7403058,20.0388097 C20.5699653,21.4515419 20.5200096,23.2442922 20.663325,24 L17.8461538,24 C18.3882955,22.7699188 18.5242404,22.2418756 18.7789323,20.2240577 L21.3250326,0 L22.6238796,0 L31.9664053,18.8736519 L41.2991037,0 L42.2752862,0 L44.9073758,20.1816411 C45.1702571,22.1942651 45.3651661,22.7699188 45.8901099,24 L41.0796264,24 Z" id="Fill-399" fill="#FFFFFF"></path>
    </g>
</svg>