<svg xmlns="http://www.w3.org/2000/svg" xmlns:xlink="http://www.w3.org/1999/xlink" width="24" height="24" viewBox="0 0 24 24"><defs><style>.a{fill:#223345;}.b{clip-path:url(#a);}.c{fill:red;stroke:#fff;}.d{stroke:none;}.e{fill:none;}</style><clipPath id="a"><path class="a" d="M9,20a3.845,3.845,0,0,1-4-3.66V16H1.637A1.636,1.636,0,0,1,.48,13.207l1.8-1.8V6.726A6.731,6.731,0,0,1,9.9.059a6.858,6.858,0,0,1,5.82,6.878V11.4l1.8,1.8A1.638,1.638,0,0,1,16.363,16H13v.34A3.846,3.846,0,0,1,9,20ZM7,16v.34A1.879,1.879,0,0,0,9,18a1.88,1.88,0,0,0,2-1.66V16ZM8.993,2A4.629,4.629,0,0,0,5.9,3.17a4.731,4.731,0,0,0-1.62,3.556V11.4A1.987,1.987,0,0,1,3.7,12.818L2.515,14H15.487l-1.181-1.183a1.985,1.985,0,0,1-.585-1.413V6.937a4.855,4.855,0,0,0-4.082-4.9A4.97,4.97,0,0,0,8.993,2Z" transform="translate(-0.001 0)"/></clipPath></defs><g transform="translate(3.001 2)"><path class="a" d="M9,20a3.845,3.845,0,0,1-4-3.66V16H1.637A1.636,1.636,0,0,1,.48,13.207l1.8-1.8V6.726A6.731,6.731,0,0,1,9.9.059a6.858,6.858,0,0,1,5.82,6.878V11.4l1.8,1.8A1.638,1.638,0,0,1,16.363,16H13v.34A3.846,3.846,0,0,1,9,20ZM7,16v.34A1.879,1.879,0,0,0,9,18a1.88,1.88,0,0,0,2-1.66V16ZM8.993,2A4.629,4.629,0,0,0,5.9,3.17a4.731,4.731,0,0,0-1.62,3.556V11.4A1.987,1.987,0,0,1,3.7,12.818L2.515,14H15.487l-1.181-1.183a1.985,1.985,0,0,1-.585-1.413V6.937a4.855,4.855,0,0,0-4.082-4.9A4.97,4.97,0,0,0,8.993,2Z" transform="translate(-0.001 0)"/></g><g class="c" transform="translate(12 1)"><circle class="d" cx="4" cy="4" r="4"/><circle class="e" cx="4" cy="4" r="3.5"/></g></svg>