<svg xmlns="http://www.w3.org/2000/svg" width="24" height="24" viewBox="0 0 24 24"><defs><style>.a{fill:none;}.b{fill:#00204a;}</style></defs><rect class="a" width="24" height="24"/><g transform="translate(1 0.35)"><path class="b" d="M19.8,9.667,19.143,8.9a1.341,1.341,0,0,1-.32-.772l-.075-1.017a2.912,2.912,0,0,0-2.694-2.694l-1.017-.075a1.291,1.291,0,0,1-.772-.32l-.772-.659a2.941,2.941,0,0,0-3.824,0L8.9,4.016a1.341,1.341,0,0,1-.772.32l-1.017.075A2.912,2.912,0,0,0,4.411,7.105L4.336,8.123a1.291,1.291,0,0,1-.32.772l-.659.772a2.941,2.941,0,0,0,0,3.824l.659.772a1.341,1.341,0,0,1,.32.772l.075,1.017a2.912,2.912,0,0,0,2.694,2.694l1.017.075a1.291,1.291,0,0,1,.772.32l.772.659a2.887,2.887,0,0,0,3.805,0l.772-.659a1.341,1.341,0,0,1,.772-.32l1.017-.075a2.912,2.912,0,0,0,2.694-2.694l.075-1.017a1.291,1.291,0,0,1,.32-.772l.659-.772A2.876,2.876,0,0,0,19.8,9.667ZM18.6,12.456l-.659.772a2.9,2.9,0,0,0-.7,1.677l-.075,1.017a1.353,1.353,0,0,1-1.243,1.243l-1.017.075a2.9,2.9,0,0,0-1.677.7l-.772.659a1.369,1.369,0,0,1-1.771,0l-.772-.659a2.9,2.9,0,0,0-1.677-.7l-1.017-.075a1.353,1.353,0,0,1-1.243-1.243L5.9,14.9a2.9,2.9,0,0,0-.7-1.677l-.659-.772a1.369,1.369,0,0,1,0-1.771L5.2,9.912a2.9,2.9,0,0,0,.7-1.677l.075-1.017A1.353,1.353,0,0,1,7.218,5.975L8.236,5.9a2.9,2.9,0,0,0,1.677-.7l.772-.659a1.318,1.318,0,0,1,.885-.32,1.42,1.42,0,0,1,.885.32l.772.659a2.9,2.9,0,0,0,1.677.7l1.017.075a1.353,1.353,0,0,1,1.243,1.243l.075,1.017a2.9,2.9,0,0,0,.7,1.677l.659.772A1.326,1.326,0,0,1,18.6,12.456Z" transform="translate(0 0)"/><path class="b" d="M38.057,31.426a.8.8,0,0,0-1.111,0l-5.52,5.52a.782.782,0,0,0,.565,1.338.831.831,0,0,0,.565-.226l5.52-5.52A.779.779,0,0,0,38.057,31.426Z" transform="translate(-23.172 -23.172)"/><circle class="b" cx="1.338" cy="1.338" r="1.338" transform="translate(7.671 7.671)"/><circle class="b" cx="1.338" cy="1.338" r="1.338" transform="translate(12.795 12.795)"/></g></svg>