<svg xmlns="http://www.w3.org/2000/svg" xmlns:xlink="http://www.w3.org/1999/xlink" width="24" height="24" viewBox="0 0 24 24"><defs><style>.a{fill:#223345;}.b{opacity:0.48;}.c{clip-path:url(#a);}</style><clipPath id="a"><path class="a" d="M4.862,10A1,1,0,0,1,4.143,9.7L.28,5.7a1,1,0,0,1,.013-1.4l4-4A1,1,0,0,1,5.707,1.707L2.4,5.012,5.581,8.305A1,1,0,0,1,4.862,10"/></clipPath></defs><g class="b"><g transform="translate(8.5 7)"><path class="a" d="M4.862,10A1,1,0,0,1,4.143,9.7L.28,5.7a1,1,0,0,1,.013-1.4l4-4A1,1,0,0,1,5.707,1.707L2.4,5.012,5.581,8.305A1,1,0,0,1,4.862,10"/></g></g></svg>