<svg xmlns="http://www.w3.org/2000/svg" width="24" height="24" viewBox="0 0 24 24"><defs><style>.a{fill:none;}.b{fill:#fff;}</style></defs><rect class="a" width="24" height="24"/><g transform="translate(-5.826 -6.157)"><path class="b" d="M37.262,23.108a.59.59,0,0,1-.834-.834l.923-.914a1.623,1.623,0,0,0-.654-.15,1.651,1.651,0,0,0-1.638,1.638,1.623,1.623,0,0,0,.15.654l-3.837,3.83a.59.59,0,1,0,.834.834l3.835-3.839a1.623,1.623,0,0,0,.654.15,1.651,1.651,0,0,0,1.638-1.638,1.623,1.623,0,0,0-.157-.654Z" transform="translate(-16.585 -8.701)"/><path class="b" d="M24.227,9.24H12.135A3.135,3.135,0,0,0,9,12.375v8.061a3.135,3.135,0,0,0,3.135,3.135h4.111l3.616,3.563a1.214,1.214,0,0,0,.853.358,1.073,1.073,0,0,0,.508-.125,1.03,1.03,0,0,0,.54-1.021l-.074-2.774h2.537a3.135,3.135,0,0,0,3.135-3.135V12.375A3.135,3.135,0,0,0,24.227,9.24Zm1.344,11.2a1.344,1.344,0,0,1-1.344,1.344H20.765a.9.9,0,0,0-.9.92l.052,1.98-2.687-2.64a.9.9,0,0,0-.62-.26H12.135a1.344,1.344,0,0,1-1.344-1.344V12.375a1.344,1.344,0,0,1,1.344-1.344H24.227a1.344,1.344,0,0,1,1.344,1.344Z" transform="translate(0)"/></g></svg>