<svg xmlns="http://www.w3.org/2000/svg" width="24" height="24" viewBox="0 0 24 24"><defs><style>.a{fill:none;}.b{fill:#fff;fill-rule:evenodd;}</style></defs><rect class="a" width="24" height="24"/><g transform="translate(1.119 1.093)"><path class="b" d="M13.269,14.4a.128.128,0,0,1,.194-.11l2.281,1.368a.129.129,0,0,1,0,.22l-2.281,1.368a.128.128,0,0,1-.194-.11Zm-.56,3.953a1.4,1.4,0,0,0,1.407-.018L16.4,16.964a1.4,1.4,0,0,0,0-2.4L14.116,13.2A1.4,1.4,0,0,0,12,14.4v2.737a1.4,1.4,0,0,0,.709,1.215" transform="translate(-3.656 -3.656)"/><path class="b" d="M17.724,18.225H4.039a.77.77,0,0,1-.77-.77V8.075H18.494v9.38a.77.77,0,0,1-.77.77M4.039,4.269H17.724a.77.77,0,0,1,.77.77V6.806H3.269V5.039a.77.77,0,0,1,.77-.77M17.724,3H4.039A2.039,2.039,0,0,0,2,5.039V17.455a2.039,2.039,0,0,0,2.039,2.039H17.724a2.039,2.039,0,0,0,2.039-2.039V5.039A2.039,2.039,0,0,0,17.724,3"/><path class="b" d="M6.634,7.269H7.9A.634.634,0,0,0,7.9,6H6.634a.634.634,0,0,0,0,1.269" transform="translate(-1.463 -1.097)"/><path class="b" d="M16.709,23H11.634a.634.634,0,0,0,0,1.269h5.075a.634.634,0,1,0,0-1.269" transform="translate(-3.291 -7.313)"/></g></svg>