<svg xmlns="http://www.w3.org/2000/svg" xmlns:xlink="http://www.w3.org/1999/xlink" width="11.667" height="13.333" viewBox="0 0 11.667 13.333"><defs><style>.a{fill:#00204a;}.b{clip-path:url(#a);}</style><clipPath id="a"><path class="a" d="M.193,5.533a.833.833,0,0,0,1.173.107L5,2.612V12.5a.833.833,0,0,0,1.667,0V2.612L10.3,5.64a.833.833,0,0,0,1.067-1.28l-5-4.167A.8.8,0,0,0,6.237.119a.765.765,0,0,0-.1-.058.783.783,0,0,0-.605,0,.765.765,0,0,0-.1.058A.8.8,0,0,0,5.3.193L.3,4.36A.833.833,0,0,0,.193,5.533"/></clipPath></defs><path class="a" d="M.193,5.533a.833.833,0,0,0,1.173.107L5,2.612V12.5a.833.833,0,0,0,1.667,0V2.612L10.3,5.64a.833.833,0,0,0,1.067-1.28l-5-4.167A.8.8,0,0,0,6.237.119a.765.765,0,0,0-.1-.058.783.783,0,0,0-.605,0,.765.765,0,0,0-.1.058A.8.8,0,0,0,5.3.193L.3,4.36A.833.833,0,0,0,.193,5.533"/></svg>