<svg xmlns="http://www.w3.org/2000/svg" width="24" height="24" viewBox="0 0 24 24"><defs><style>.a{fill:#00204a;}</style></defs><path class="a" d="M29.091,56A1.169,1.169,0,0,0,28,57.234v3.7a4.677,4.677,0,0,0,4.364,4.937H47.636A4.677,4.677,0,0,0,52,60.937v-3.7a1.1,1.1,0,1,0-2.182,0v3.7A2.338,2.338,0,0,1,47.636,63.4H32.364a2.338,2.338,0,0,1-2.182-2.468v-3.7A1.169,1.169,0,0,0,29.091,56Z" transform="translate(-28 -41.873)"/><path class="a" d="M46.147,43.766a1.234,1.234,0,0,0,1.234-1.234V32.1l2.851,2.727a1.234,1.234,0,1,0,1.7-1.783L47,28.328a1.234,1.234,0,0,0-1.7,0l-4.937,4.721a1.234,1.234,0,1,0,1.7,1.783l2.851-2.715V42.544A1.234,1.234,0,0,0,46.147,43.766Z" transform="translate(-34.146 -27.988)"/></svg>